<?xml version="1.0" encoding="UTF-8"?>
<svg id="Camada_2" data-name="Camada 2" xmlns="http://www.w3.org/2000/svg" viewBox="0 0 767.41 113.1">
  <defs>
    <style>
      .cls-1 {
        fill: #0266ae;
      }
    </style>
  </defs>
  <g id="Camada_1-2" data-name="Camada 1">
    <g>
      <path class="cls-1" d="M396.07,52.21c4.89,0,7.31-2.88,8.37-5.3l-4.73-2.17c-.46,1.41-1.87,2.63-3.64,2.63-2.5,0-4.26-2.01-4.26-4.54s1.77-4.54,4.26-4.54c1.77,0,3.18,1.22,3.64,2.63l4.73-2.2c-1.09-2.5-3.48-5.27-8.37-5.27-5.54,0-9.83,3.78-9.83,9.37s4.29,9.37,9.83,9.37Z"/>
      <rect class="cls-1" x="406.15" y="33.77" width="5.49" height="18.12"/>
      <polygon class="cls-1" points="421.64 30.27 423.37 32.25 426.23 32.25 423.75 28.34 419.52 28.34 417.13 32.25 419.98 32.25 421.64 30.27"/>
      <polygon class="cls-1" points="428.32 47.32 420.06 47.32 420.06 45.02 428.13 45.02 428.13 40.45 420.06 40.45 420.06 38.33 428.32 38.33 428.32 33.77 414.57 33.77 414.57 51.89 428.32 51.89 428.32 47.32"/>
      <polygon class="cls-1" points="436.25 42.16 442.93 51.89 448.2 51.89 448.2 33.77 442.72 33.77 442.72 42.9 436.41 33.77 430.77 33.77 430.77 51.89 436.25 51.89 436.25 42.16"/>
      <path class="cls-1" d="M459.99,52.21c4.89,0,7.31-2.88,8.37-5.3l-4.73-2.17c-.46,1.41-1.87,2.63-3.64,2.63-2.5,0-4.26-2.01-4.26-4.54s1.77-4.54,4.26-4.54c1.77,0,3.18,1.22,3.64,2.63l4.73-2.2c-1.09-2.5-3.48-5.27-8.37-5.27-5.54,0-9.83,3.78-9.83,9.37s4.29,9.37,9.83,9.37Z"/>
      <rect class="cls-1" x="470.08" y="33.77" width="5.49" height="18.12"/>
      <path class="cls-1" d="M483.2,49.55h6.95l.71,2.34h5.95l-6.68-18.12h-6.9l-6.68,18.12h5.95l.71-2.34ZM486.67,38.61l2.06,6.38h-4.13l2.06-6.38Z"/>
      <path class="cls-1" d="M505.09,47.6c-2.44,0-4.48-1.03-5.84-2.34l-2.85,4.07c1.93,1.74,4.56,2.88,8.42,2.88,4.86,0,7.82-2.31,7.82-6.3s-4.43-5.05-7.41-5.57c-1.93-.33-2.66-.57-2.66-1.28,0-.46.3-.95,1.66-.95,1.44,0,3.48.6,5.05,1.79l2.93-3.88c-2.06-1.68-4.73-2.53-7.69-2.53-4.97,0-7.52,2.8-7.52,5.87,0,4.54,4.56,5.24,7.55,5.79,1.79.33,2.55.68,2.55,1.39s-.98,1.06-2.01,1.06Z"/>
      <path class="cls-1" d="M516.26,51.89c.3,0,.57-.05.71-.11-.35,1.03-1.6,2.12-2.47,2.5l1.98,1.6c2.12-1.49,3.39-3.59,3.39-5.98,0-2.23-1.49-3.5-3.15-3.5-1.52,0-2.82,1.28-2.82,2.85s1.06,2.63,2.36,2.63Z"/>
      <polygon class="cls-1" points="538.37 51.89 538.37 38.55 543.21 38.55 543.21 33.77 528.02 33.77 528.02 38.55 532.88 38.55 532.88 51.89 538.37 51.89"/>
      <polygon class="cls-1" points="545.16 51.89 558.91 51.89 558.91 47.32 550.65 47.32 550.65 45.02 558.72 45.02 558.72 40.45 550.65 40.45 550.65 38.33 558.91 38.33 558.91 33.77 545.16 33.77 545.16 51.89"/>
      <path class="cls-1" d="M570.21,38.31c1.77,0,3.18,1.22,3.64,2.63l4.73-2.2c-1.09-2.5-3.48-5.27-8.37-5.27-5.54,0-9.83,3.78-9.83,9.37s4.29,9.37,9.83,9.37c4.89,0,7.31-2.88,8.37-5.3l-4.73-2.17c-.46,1.41-1.87,2.63-3.64,2.63-2.5,0-4.26-2.01-4.26-4.54s1.77-4.54,4.26-4.54Z"/>
      <polygon class="cls-1" points="585.78 42.16 592.46 51.89 597.73 51.89 597.73 33.77 592.24 33.77 592.24 42.9 585.94 33.77 580.29 33.77 580.29 51.89 585.78 51.89 585.78 42.16"/>
      <path class="cls-1" d="M609.6,52.21c5.6,0,9.91-3.8,9.91-9.37s-4.32-9.37-9.91-9.37-9.91,3.8-9.91,9.37,4.32,9.37,9.91,9.37ZM609.6,38.31c2.63,0,4.35,2.01,4.35,4.54s-1.71,4.54-4.35,4.54-4.35-2.01-4.35-4.54,1.71-4.54,4.35-4.54Z"/>
      <polygon class="cls-1" points="633.83 47.11 626.96 47.11 626.96 33.77 621.48 33.77 621.48 51.89 633.83 51.89 633.83 47.11"/>
      <path class="cls-1" d="M654.34,42.84c0-5.57-4.32-9.37-9.91-9.37s-9.91,3.8-9.91,9.37,4.32,9.37,9.91,9.37,9.91-3.8,9.91-9.37ZM644.43,47.38c-2.63,0-4.35-2.01-4.35-4.54s1.71-4.54,4.35-4.54,4.35,2.01,4.35,4.54-1.71,4.54-4.35,4.54Z"/>
      <path class="cls-1" d="M673.58,41.27h-8.83v4.51h3.5v.79c-.71.52-1.79.81-2.96.81-2.63,0-4.4-2.01-4.4-4.54s1.77-4.54,4.4-4.54c1.55,0,2.74.87,3.34,1.98l4.62-2.36c-1.25-2.34-3.75-4.45-7.96-4.45-5.49,0-9.97,3.56-9.97,9.37s4.48,9.37,9.97,9.37c3.56,0,6.27-1.44,8.28-3.67v-7.28Z"/>
      <rect class="cls-1" x="676.03" y="33.77" width="5.49" height="18.12"/>
      <path class="cls-1" d="M689.15,49.55h6.95l.71,2.34h5.95l-6.68-18.12h-6.9l-6.68,18.12h5.95l.71-2.34ZM692.62,38.61l2.06,6.38h-4.13l2.06-6.38Z"/>
      <rect class="cls-1" x="387.22" y="61.6" width="5.49" height="18.12"/>
      <polygon class="cls-1" points="407.59 70.73 401.29 61.6 395.64 61.6 395.64 79.72 401.12 79.72 401.12 69.99 407.81 79.72 413.08 79.72 413.08 61.6 407.59 61.6 407.59 70.73"/>
      <path class="cls-1" d="M424.95,61.3c-5.59,0-9.91,3.8-9.91,9.37s4.32,9.37,9.91,9.37,9.91-3.8,9.91-9.37-4.32-9.37-9.91-9.37ZM424.95,75.21c-2.63,0-4.35-2.01-4.35-4.54s1.71-4.54,4.35-4.54,4.35,2.01,4.35,4.54-1.71,4.54-4.35,4.54Z"/>
      <polygon class="cls-1" points="448.37 61.6 444.46 73.8 440.54 61.6 434.33 61.6 441.01 79.72 447.91 79.72 454.59 61.6 448.37 61.6"/>
      <path class="cls-1" d="M459.21,61.6l-6.68,18.12h5.95l.71-2.34h6.95l.71,2.34h5.95l-6.68-18.12h-6.9ZM460.59,72.82l2.06-6.38,2.06,6.38h-4.13Z"/>
      <path class="cls-1" d="M490.18,74.75l-4.73-2.17c-.46,1.41-1.87,2.63-3.64,2.63-2.5,0-4.26-2.01-4.26-4.54s1.77-4.54,4.26-4.54c1.77,0,3.18,1.22,3.64,2.63l4.73-2.2c-1.09-2.5-3.48-5.27-8.37-5.27-5.54,0-9.83,3.78-9.83,9.37,0,5.13,3.64,8.75,8.53,9.29l-.6,1.63,1.6.92c.16-.19.41-.33.71-.33.35,0,.57.16.57.46,0,.46-.57.65-1.14.65-.76,0-1.55-.33-2.25-.81l-.84,1.74c.6.49,1.79.92,3.23.92,1.74,0,3.21-.87,3.21-2.42,0-1.17-.87-1.98-1.85-1.98-.35,0-.65.08-.92.24l.43-.98c4.32-.3,6.52-2.99,7.52-5.27Z"/>
      <path class="cls-1" d="M496.35,61.6l-6.68,18.12h5.95l.71-2.34h6.95l.71,2.34h5.95l-6.68-18.12h-6.9ZM497.73,72.82l2.06-6.38,2.06,6.38h-4.13Z"/>
      <path class="cls-1" d="M501.37,57.5c-.3,0-.54-.19-.87-.41-.49-.33-1.09-.76-2.12-.76-2.09,0-3.21,1.14-3.21,3.64h2.42c0-.68.3-1.01.65-1.01.3,0,.54.19.87.41.49.33,1.09.76,2.12.76,2.09,0,3.21-1.14,3.21-3.64h-2.42c0,.68-.3,1-.65,1Z"/>
      <path class="cls-1" d="M519.03,61.3c-5.59,0-9.91,3.8-9.91,9.37s4.32,9.37,9.91,9.37,9.91-3.8,9.91-9.37-4.32-9.37-9.91-9.37ZM519.03,75.21c-2.63,0-4.35-2.01-4.35-4.54s1.71-4.54,4.35-4.54,4.35,2.01,4.35,4.54-1.71,4.54-4.35,4.54Z"/>
      <polygon class="cls-1" points="537.83 79.72 551.57 79.72 551.57 75.15 543.32 75.15 543.32 72.85 551.38 72.85 551.38 68.28 543.32 68.28 543.32 66.16 551.57 66.16 551.57 61.6 537.83 61.6 537.83 79.72"/>
      <path class="cls-1" d="M569.8,66.14c1.77,0,3.18,1.22,3.64,2.63l4.73-2.2c-1.09-2.5-3.48-5.27-8.37-5.27-5.54,0-9.83,3.78-9.83,9.37s4.29,9.37,9.83,9.37c4.89,0,7.31-2.88,8.37-5.3l-4.73-2.17c-.46,1.41-1.87,2.63-3.64,2.63-2.5,0-4.26-2.01-4.26-4.54s1.77-4.54,4.26-4.54Z"/>
      <path class="cls-1" d="M588.82,61.3c-5.59,0-9.91,3.8-9.91,9.37s4.32,9.37,9.91,9.37,9.91-3.8,9.91-9.37-4.32-9.37-9.91-9.37ZM588.82,75.21c-2.63,0-4.35-2.01-4.35-4.54s1.71-4.54,4.35-4.54,4.35,2.01,4.35,4.54-1.71,4.54-4.35,4.54Z"/>
      <polygon class="cls-1" points="611.45 70.84 608.27 61.6 600.69 61.6 600.69 79.72 606.18 79.72 606.18 68.28 610.23 79.72 612.67 79.72 616.72 68.28 616.72 79.72 622.2 79.72 622.2 61.6 614.63 61.6 611.45 70.84"/>
      <path class="cls-1" d="M636.99,72.08c0,1.74-.9,3.12-3.12,3.12s-3.15-1.39-3.15-3.12v-10.48h-5.57v10.67c0,4.48,2.61,7.77,8.72,7.77s8.69-3.29,8.69-7.8v-10.65h-5.57v10.48Z"/>
      <polygon class="cls-1" points="657.44 70.73 651.14 61.6 645.49 61.6 645.49 79.72 650.98 79.72 650.98 69.99 657.66 79.72 662.93 79.72 662.93 61.6 657.44 61.6 657.44 70.73"/>
      <rect class="cls-1" x="665.87" y="61.6" width="5.49" height="18.12"/>
      <path class="cls-1" d="M686.78,72.57c-.46,1.41-1.87,2.63-3.64,2.63-2.5,0-4.26-2.01-4.26-4.54s1.77-4.54,4.26-4.54c1.77,0,3.18,1.22,3.64,2.63l4.73-2.2c-1.09-2.5-3.48-5.27-8.37-5.27-5.54,0-9.83,3.78-9.83,9.37s4.29,9.37,9.83,9.37c4.89,0,7.31-2.88,8.37-5.3l-4.73-2.17Z"/>
      <path class="cls-1" d="M697.68,61.6l-6.68,18.12h5.95l.71-2.34h6.95l.71,2.34h5.95l-6.68-18.12h-6.9ZM699.07,72.82l2.06-6.38,2.06,6.38h-4.13Z"/>
      <path class="cls-1" d="M728.65,74.75l-4.73-2.17c-.46,1.41-1.87,2.63-3.64,2.63-2.5,0-4.26-2.01-4.26-4.54s1.77-4.54,4.26-4.54c1.77,0,3.18,1.22,3.64,2.63l4.73-2.2c-1.09-2.5-3.48-5.27-8.37-5.27-5.54,0-9.83,3.78-9.83,9.37,0,5.13,3.64,8.75,8.53,9.29l-.6,1.63,1.6.92c.16-.19.41-.33.71-.33.35,0,.57.16.57.46,0,.46-.57.65-1.14.65-.76,0-1.55-.33-2.25-.81l-.84,1.74c.6.49,1.79.92,3.23.92,1.74,0,3.21-.87,3.21-2.42,0-1.17-.87-1.98-1.85-1.98-.35,0-.65.08-.92.24l.43-.98c4.32-.3,6.52-2.99,7.52-5.27Z"/>
      <path class="cls-1" d="M736.72,58.97c.3,0,.54.19.87.41.49.33,1.09.76,2.12.76,2.09,0,3.2-1.14,3.2-3.64h-2.42c0,.68-.3,1-.65,1-.3,0-.54-.19-.87-.41-.49-.33-1.09-.76-2.12-.76-2.09,0-3.21,1.14-3.21,3.64h2.42c0-.68.3-1.01.65-1.01Z"/>
      <path class="cls-1" d="M734.82,61.6l-6.68,18.12h5.95l.71-2.34h6.95l.71,2.34h5.95l-6.68-18.12h-6.9ZM736.2,72.82l2.06-6.38,2.06,6.38h-4.13Z"/>
      <path class="cls-1" d="M757.5,61.3c-5.59,0-9.91,3.8-9.91,9.37s4.32,9.37,9.91,9.37,9.91-3.8,9.91-9.37-4.32-9.37-9.91-9.37ZM757.5,75.21c-2.63,0-4.35-2.01-4.35-4.54s1.71-4.54,4.35-4.54,4.35,2.01,4.35,4.54-1.71,4.54-4.35,4.54Z"/>
      <path class="cls-1" d="M30.94,99.01l-2.18-1.36c-.22-.14-.39-.1-.53.12-.08.14-.09.27,0,.4v.03s.03.02.03.02c.07.11.07.25,0,.41l-2.25,3.6c-.11.13-.23.19-.37.18h-.06c-.15-.02-.27.04-.36.17-.02.03-.03.06-.05.1-.02.04-.03.08-.02.13,0,.05.02.1.04.15.03.05.08.1.16.15l2.18,1.36c.15.1.3.1.43,0,.04-.03.07-.06.1-.11.08-.12.08-.25,0-.4l-.02-.05c-.08-.12-.08-.26,0-.42l2.25-3.6c.12-.14.25-.19.38-.18h.05c.16,0,.28-.05.35-.17.03-.04.05-.09.06-.15.02-.17-.04-.3-.19-.39Z"/>
      <path class="cls-1" d="M36.37,102.93c.01.27.11.46.28.56.13.08.26.09.41.04.12-.05.2-.13.24-.24.01-.03.03-.09.04-.18.02-.09.04-.21.07-.36l.08-.46v-.08c-.02-.16-.1-.27-.23-.32l-4.58-1.87c-.13-.05-.26-.03-.39.07l-.06.06-.25.38c-.19.29-.29.44-.29.46-.05.11-.04.23.01.36.05.13.16.21.31.25.18.05.38-.02.59-.19.07-.06.13-.1.19-.14.06-.03.12-.06.18-.07.06-.01.13-.02.2,0,.07,0,.16.02.26.05l.14.06-1.67,4.09-.04.08c-.08.15-.19.23-.33.24h-.06c-.15.01-.26.09-.32.23-.02.06-.03.11-.03.16-.02.16.06.27.24.35l2.37.97c.25.1.42.04.51-.2.06-.14.04-.27-.07-.39l-.02-.03-.02-.02c-.09-.1-.12-.24-.07-.41l1.7-4.18.14.06c.18.11.3.21.36.3.06.09.1.22.11.39Z"/>
      <path class="cls-1" d="M43.06,109.03h-.03c-.09-.08-.14-.17-.17-.3l-.04-.15-.02-.06c-.02-.12-.04-.22-.05-.32s-.03-.19-.04-.27l-.14-1.03c-.03-.21-.05-.41-.09-.6-.03-.2-.07-.39-.1-.58-.04-.24-.08-.44-.11-.6-.03-.16-.05-.28-.07-.35-.16-.81-.32-1.34-.45-1.61l-.06-.1c-.11-.17-.29-.28-.54-.33-.32-.07-.55-.09-.69-.08-.22.02-.43.12-.62.3-.35.32-.74.83-1.19,1.53l-1.76,2.81-.02.02-.11.15c-.08.11-.16.18-.25.2l-.06.02c-.14.04-.22.14-.26.29-.05.25.04.39.28.44l1.39.28c.26.05.41-.04.46-.29.03-.14-.02-.26-.14-.38l-.04-.04c-.14-.1-.19-.25-.15-.44.02-.11.12-.31.29-.6l.1-.17,1.99.41.02.27c.02.34.03.56,0,.66-.03.13-.1.21-.23.24l-.07.02-.05.02c-.15.06-.24.15-.27.28,0,.05-.01.1,0,.16.04.16.14.26.31.3l2.67.55c.18.04.31-.01.4-.15.03-.04.05-.08.06-.14.03-.13-.02-.26-.14-.38l-.02-.02ZM38.89,105.92l.11-.21.12-.2.1-.16.12-.19c.23-.35.43-.65.62-.88.07.24.11.41.12.51l.02.2.05.31.04.25.05.64-1.35-.28Z"/>
      <path class="cls-1" d="M51.12,108.63c-.09-.39-.13-.75-.13-1.08l.02-.17.06-.28.05-.18c.02-.07.03-.14.03-.18,0-.23-.11-.35-.34-.36l-1.67-.03c-.65-.01-1.04,0-1.19.05-.2.05-.3.22-.31.52,0,.28.17.43.52.43.06,0,.11,0,.14,0h.2c.18,0,.3.11.34.31v.08s.02.06.02.06v.36c-.01.52-.26.78-.73.77-.33,0-.63-.18-.9-.53-.23-.32-.37-.65-.4-1.01l-.07-.66v-.17s0-.08.02-.17c0-.09.01-.15.01-.17.01-.63.17-1.13.48-1.48.29-.34.68-.5,1.17-.5.26,0,.47.04.65.12.34.15.57.38.68.68l.09.24c.08.22.26.34.54.34.21,0,.35-.17.41-.51,0-.05.01-.13.02-.26,0-.12,0-.29.01-.49,0-.16-.04-.27-.13-.34-.13-.11-.34-.22-.64-.33l-.26-.1c-.48-.18-1.09-.27-1.81-.29-1.41-.02-2.44.48-3.1,1.52-.31.49-.49.86-.52,1.13-.01.13-.03.23-.03.32,0,.08-.01.14-.02.17v.17c-.02,1.01.32,1.84,1.03,2.47.41.38.8.62,1.15.74.19.05.63.12,1.3.2h.22s.11,0,.17,0,.15,0,.25,0c.43-.02.89-.1,1.38-.25.57-.19.96-.41,1.18-.66l.08-.1c.06-.08.09-.16.09-.25l-.03-.07v-.04Z"/>
      <path class="cls-1" d="M58.6,105.16c-.02-.09-.05-.18-.08-.28l-.39-1.35c-.02-.05-.03-.1-.04-.14-.01-.05-.02-.09-.03-.13-.05-.23-.01-.41.13-.53l.04-.04c.12-.11.16-.24.13-.38-.01-.05-.03-.09-.06-.14-.09-.14-.23-.18-.41-.15l-1.19.27c-.26.06-.36.21-.3.45.03.16.13.25.28.29h.02s.03.02.03.02c.15.04.23.11.26.22l.09.26.26.94.15.57c.03.12.08.3.13.54.06.24.13.55.21.93.02.11.03.17.03.18.06.33.04.58-.04.73-.14.3-.46.51-.94.61-.21.05-.44.03-.67-.06-.21-.09-.37-.19-.48-.31-.19-.21-.32-.49-.4-.83-.01-.05-.03-.14-.05-.24-.02-.11-.05-.24-.07-.4l-.18-1.03c-.06-.34-.11-.63-.15-.84-.04-.22-.07-.38-.08-.48,0-.18.05-.32.17-.41l.05-.04c.12-.1.17-.22.13-.38-.05-.24-.21-.34-.47-.28l-2.4.53c-.26.06-.36.21-.3.45.04.16.13.26.29.29h.03s.03.02.03.02c.11.03.18.08.23.16.05.07.09.21.12.42l.18,1.09.18,1.02c.17.99.5,1.68.99,2.07.44.34.91.47,1.41.41.33-.04.58-.07.74-.09.16-.02.23-.03.22-.02l.51-.11c.98-.22,1.57-.6,1.78-1.15.21-.58.21-1.38-.01-2.38-.02-.09-.04-.18-.06-.27Z"/>
      <path class="cls-1" d="M66.71,104.5h-.03s-.03,0-.03,0c-.11,0-.21-.05-.31-.14l-.11-.1-.05-.04c-.08-.08-.16-.16-.23-.23-.07-.07-.13-.14-.19-.2l-.71-.76c-.14-.15-.28-.3-.42-.44-.14-.14-.28-.28-.41-.41-.17-.17-.32-.31-.44-.43-.12-.11-.2-.2-.26-.24-.6-.57-1.03-.92-1.3-1.05l-.11-.04c-.18-.07-.39-.06-.63.04-.3.13-.5.24-.61.34-.17.15-.28.35-.34.6-.1.46-.13,1.1-.09,1.94l.19,3.31v.03s0,.18,0,.18c0,.14-.03.24-.08.31l-.04.05c-.09.11-.1.24-.04.39.1.23.26.3.49.2l1.3-.57c.24-.11.31-.27.21-.5-.06-.13-.17-.21-.33-.23h-.05c-.17-.01-.3-.1-.38-.27-.05-.11-.08-.33-.11-.66l-.02-.19,1.86-.82.17.21c.21.26.34.44.38.53.05.12.04.23-.04.33l-.04.06-.03.04c-.09.14-.11.26-.06.39.02.04.05.09.09.13.13.11.27.13.43.06l2.49-1.09c.17-.07.25-.19.24-.36,0-.05-.01-.1-.03-.15-.05-.12-.16-.2-.33-.23ZM61.48,104.37l-.03-.24-.02-.23v-.19s-.02-.23-.02-.23c-.02-.42-.02-.78,0-1.07.19.16.33.27.39.35l.14.15.22.22.18.18.42.49-1.26.55Z"/>
      <path class="cls-1" d="M70.39,102.08h-.05c-.14.02-.27-.04-.38-.17l-2.3-3.57c-.07-.17-.07-.3,0-.42l.02-.05c.07-.15.07-.28,0-.39-.03-.04-.06-.08-.11-.12-.14-.09-.29-.09-.43,0l-2.16,1.39c-.21.14-.25.31-.12.52.09.13.21.19.36.17h.06c.13-.02.26.04.37.17l2.3,3.57c.07.15.07.29,0,.41l-.03.05c-.08.13-.08.27,0,.4.02.03.04.05.07.09.03.03.07.06.11.08.04.02.1.03.15.02s.12-.03.2-.08l2.16-1.39c.15-.1.21-.23.18-.39,0-.05-.03-.09-.06-.14-.08-.12-.2-.18-.36-.17Z"/>
      <path class="cls-1" d="M44.78,62.79c.43-.21.75-.54.96-.99.21-.45.31-1.06.31-1.82s-.1-1.36-.31-1.81c-.21-.45-.51-.77-.91-.96-.4-.19-.91-.28-1.54-.28-.51,0-.9,0-1.18.02v6.15h.94c.73,0,1.31-.1,1.74-.31Z"/>
      <path class="cls-1" d="M80.17,77.71v.65h.71v4.46h.92v-5.85h-.62c-.14.39-.3.74-1.01.74Z"/>
      <path class="cls-1" d="M84.23,76.9c-.93,0-1.44.54-1.44,1.47v.18c0,.58.18.96.57,1.17v.02c-.4.23-.57.65-.57,1.21v.46c0,.94.51,1.47,1.44,1.47s1.44-.54,1.44-1.47v-.46c0-.56-.17-.99-.57-1.21v-.02c.38-.21.57-.59.57-1.17v-.18c0-.94-.51-1.47-1.44-1.47ZM84.75,81.39c0,.52-.23.66-.52.66s-.52-.14-.52-.66v-.54c0-.46.19-.66.52-.66s.52.2.52.66v.54ZM84.75,78.73c0,.47-.23.62-.52.62s-.52-.15-.52-.62v-.33c0-.53.23-.67.52-.67s.52.14.52.67v.33Z"/>
      <path class="cls-1" d="M86.58,77.71v.65h.71v4.46h.92v-5.85h-.62c-.14.39-.3.74-1.01.74Z"/>
      <path class="cls-1" d="M90.65,76.9c-.93,0-1.44.54-1.44,1.47v.18c0,.58.18.96.57,1.17v.02c-.4.23-.57.65-.57,1.21v.46c0,.94.51,1.47,1.44,1.47s1.44-.54,1.44-1.47v-.46c0-.56-.17-.99-.57-1.21v-.02c.38-.21.57-.59.57-1.17v-.18c0-.94-.51-1.47-1.44-1.47ZM91.16,81.39c0,.52-.23.66-.52.66s-.52-.14-.52-.66v-.54c0-.46.19-.66.52-.66s.52.2.52.66v.54ZM91.16,78.73c0,.47-.23.62-.52.62s-.52-.15-.52-.62v-.33c0-.53.23-.67.52-.67s.52.14.52.67v.33Z"/>
      <path class="cls-1" d="M95.74,78.2v-4.76h0s0-.02,0-.03c0-.82-.66-1.48-1.48-1.48h-.86v-2.23h-1.98c-.82,0-1.48.66-1.48,1.48h0v2.97h-1.38v-4.11h0v-9.14c.38-.28.56-.63.57-.65,0,0,0-.01.01-.02l2.11-4.93,2.12,6.5v-11.53h0s0-.05,0-.07c0,0,0,0,0,0,0-.04-.02-.09-.05-.13-.07-.1-.18-.16-.31-.16h-3.03c-.15,0-.28.09-.34.22l-1.09,2.58v-9.34c.35-.23.53-.52.54-.54,0,0,0-.02.01-.02l2-4,2.27,6.95v-11.53c0-.18-.13-.32-.29-.35-.03,0-.06-.01-.1-.01h-3.03c-.14,0-.27.08-.33.2l-1.78,3.62-.45-3.48-.05-.39.22-.09h0s0,0,0,0c1.23-.51,1.91-1.14,2.02-1.88.14-1.01-.29-1.64-.52-1.98l-.04-.06c-.05-.08-.11-.15-.15-.2-.01-.01-.02-.03-.04-.04.01-.06.05-.19.18-.45.5-.97-.07-1.67-.34-2.01-.05-.06-.12-.14-.15-.2.2-.63.04-1.49-.39-2.1-.36-.52-.88-.8-1.46-.8-.01,0-.02,0-.04,0s-.02,0-.04,0c-.58,0-1.1.29-1.46.81-.43.61-.58,1.46-.38,2.09-.04.06-.1.14-.15.2-.28.34-.85,1.04-.34,2.02.13.25.17.39.18.45-.01.02-.03.03-.04.04-.04.05-.1.12-.16.21-.02.03-.03.05-.05.08-.23.34-.65.97-.51,1.97.1.75.8,1.39,2.07,1.9l.22.09-.05.37-1.15,8.99v.83s0,1.12,0,1.12l-1.14-2.31c-.06-.13-.19-.2-.33-.2h-3.03s-.07,0-.1.01c-.17.03-.29.18-.29.35v9.25s0,.05.01.08v2.2l2.27-6.94,2,3.99s0,.02.01.02c.01.02.21.34.6.58v9.4l-1.13-2.67c-.06-.14-.19-.22-.34-.22h-3.03c-.12,0-.24.06-.31.16-.03.04-.04.08-.05.13,0,0,0,0,0,0,0,.02,0,.04,0,.07h0v9.25s0,.05.01.08v2.2l2.12-6.49,2.11,4.92s0,.01.01.02c.01.03.21.4.61.68v4.44h-4.82c-.7,0-1.36.24-1.88.65.31-1.75.47-3.55.47-5.39V27.26h-6.27s0-.01,0-.02c.09-.2.19-.44.07-.74-.02-.05-.04-.1-.06-.15l1.38-2.78c.23-.04.49-.14.66-.39.23-.33.29-.72.16-1.05-.03-.07-.07-.14-.11-.21l3.64-7.18,1.12-.75.11-.07.06-.11,2.57-4.91.24-.47-.48-.23-1.91-.91-.45-.21-.22.45-.58,1.18-1.17-.55.56-1.18.22-.47-.47-.21-2.13-.95-.48-.21-.2.49-2.05,5.15-.05.13.02.14.1.67-1.34-.55-.49-.2-.18.49-.57,1.53-.74-.28.55-1.57.17-.49-.49-.16-1.22-.41.59-.55.1-.09.04-.13,1.61-5.15.16-.5-.5-.14-2.13-.6-.49-.14-.14.49-.35,1.26-1.08-.3.3-1.27.11-.49-.49-.12-2.9-.72-.52-.13-.1.52-.25,1.3-1.17-.23.25-1.34.09-.5-.5-.09-2.16-.4-.51-.09-.08.51-.52,3.14-.35,2.28-.02.14.05.13.26.66-1.24-.18-.52-.08-.06.52-.2,1.67-1.02-.11.14-1.62.04-.51-.51-.04-1.22-.1.45-.69.07-.11v-.13s.44-5.38.44-5.38l.04-.52-.52-.03-2.22-.12-.51-.03-.03.5-.08,1.38-1.14-.03V.53s-.01-.5-.01-.5h-.5s-2.98-.03-2.98-.03h-.54s.03.53.03.53l.07,1.33-1.14.05-.08-1.33-.03-.5-.5.02-2.24.11-.52.02.04.52.41,5.24v.12s.07.1.07.1l.5.83-1.31.12-.52.05.06.52.2,1.67-1,.1-.27-1.6-.08-.48-.49.06-1.2.16.27-.83.04-.12-.02-.12-.88-5.33-.09-.52-.51.1-2.11.41-.48.1.08.49.22,1.31-1.16.23-.34-1.33-.12-.49-.49.12-2.84.68-.5.12.13.5.33,1.3-1.06.29-.41-1.3-.15-.48-.48.15-2.13.68-.49.16.16.49,1.72,5.21.04.12.1.09.51.48-1.2.42-.48.17.17.48.54,1.54-.69.26-.64-1.51-.19-.46-.46.19-1.29.52.1-.64.02-.14-.05-.13-1.57-3.86-.53-1.38-.19-.5-.49.22-2.16.97-.48.22.23.47.59,1.19-1.17.53-.59-1.2-.22-.45-.45.21-1.89.89-.48.22.24.47,2.56,4.93.06.11.11.07,1.09.74,3.66,7.23c-.12.28-.23.74.03,1.12.2.3.48.44.71.5l1.36,2.72c-.07.24-.12.62.05.96h-6.31v42.16c0,1.81.16,3.59.46,5.31-.5-.36-1.11-.58-1.77-.58h-4.89v-4.11s0-.33,0-.33c.4-.28.6-.65.61-.68,0,0,0-.01.01-.02l2.11-4.92,2.12,6.49v-2.2s.01-.05.01-.08v-9.25h0s0-.05,0-.07c0,0,0,0,0,0,0-.04-.02-.09-.05-.13-.07-.1-.18-.16-.31-.16h-3.03c-.15,0-.28.09-.34.22l-1.13,2.67v-9.4c.39-.24.59-.56.6-.58,0,0,0-.01.01-.02l2-3.99,2.26,6.94v-2.2s.01-.05.01-.08v-9.25c0-.18-.13-.32-.29-.35-.03,0-.06-.01-.1-.01h-3.03c-.14,0-.27.08-.33.2l-1.14,2.31v-1.95s-1.15-8.99-1.15-8.99l-.05-.37.22-.09c1.27-.51,1.97-1.15,2.07-1.9.14-.99-.28-1.63-.51-1.97-.02-.03-.04-.05-.05-.08-.06-.09-.11-.15-.16-.21-.01-.01-.02-.03-.04-.04.01-.06.05-.19.18-.45.51-.98-.06-1.68-.34-2.02-.05-.06-.12-.14-.15-.2.2-.63.05-1.48-.38-2.09-.36-.52-.88-.81-1.46-.81-.01,0-.02,0-.04,0s-.02,0-.04,0c-.58,0-1.09.28-1.46.8-.43.61-.59,1.46-.39,2.1-.04.06-.1.14-.15.2-.27.34-.84,1.04-.34,2.01.14.26.17.4.18.45-.01.01-.02.03-.04.04-.04.05-.1.12-.15.2l-.04.06c-.23.34-.66.97-.53,1.98.11.74.78,1.37,2.02,1.88h0s0,0,0,0l.22.09-.05.39-.45,3.48-1.78-3.62c-.06-.12-.19-.2-.33-.2h-3.03s-.07,0-.1.01c-.17.03-.29.18-.29.35v11.53l2.27-6.95,2,4s0,.02.01.02c.01.02.19.31.54.54v.65s0,7.7,0,7.7v.99l-1.09-2.58c-.06-.14-.19-.22-.34-.22h-3.03c-.12,0-.24.06-.31.16-.03.04-.04.08-.05.13,0,0,0,0,0,0,0,.02,0,.04,0,.07h0v11.54l2.13-6.5,2.11,4.93s0,.01.01.02c.01.02.2.38.57.65v8.38h0v.62s0,.14,0,.14v4.11s-1.4,0-1.4,0v-2.97h0c0-.82-.66-1.48-1.48-1.48h-1.98v2.23h-.86c-.82,0-1.48.66-1.48,1.48v4.78c0,.6.24,1.15.66,1.56.03.03.05.04.07.07-.02.02-.04.04-.07.07-.43.41-.66.97-.66,1.56v4.88c0,.82.66,1.48,1.48,1.48,0,0,0,0,0,0s0,0,0,0h.85v2.23h1.98c.82,0,1.48-.66,1.48-1.48h0v-2.97h1.4v5.39l3.76,2.62v-8.01h5.98c-.12.75-.42,2.45-.69,4-.6,3.43-.96,5.53-.96,5.82,0,.77.27,1.52.73,2.13.05.07.18.22.31.38.02.04.89,1,.93,1.03,7.98,8.31,19.07,13.05,30.62,13.05s22.57-4.72,30.55-12.98c.02,0,.41-.42.77-.81.29-.32.78-.82,1.12-1.59.16-.38.22-.8.23-1.21,0-.28-.36-2.38-.96-5.82-.27-1.55-.57-3.25-.69-4h5.9v8.01l3.76-2.62v-5.39h1.38v2.97h0c0,.82.66,1.48,1.48,1.48h1.98v-2.23h.85s0,0,0,0,0,0,0,0c.82,0,1.48-.66,1.48-1.48,0,0,0-.01,0-.02v-4.86c0-.6-.24-1.15-.66-1.56-.02-.02-.05-.05-.07-.07.02-.02.04-.04.07-.07.43-.41.66-.97.66-1.56ZM91.43,70.44h1.24v1.5h-1.24c-.41,0-.75-.34-.75-.75s.34-.75.75-.75ZM92.67,50.63v6.58l-2.17-6.58h2.17ZM89.96,51.3l.96,2.95-2.44,5.68s-.01.02-.02.03c0,0,0,.01-.01.02,0,0-.01.02-.02.03-.02.02-.03.05-.06.07,0,0-.01.01-.02.02-.05.06-.11.11-.18.17-.01,0-.02.02-.03.02-.02.02-.05.03-.07.05-.14.09-.3.15-.5.15h-1.51l3.89-9.2ZM92.67,34.58v6.58l-2.17-6.58h2.17ZM87.79,39.49l2.14-4.34.87,2.67-2.32,4.64s-.01.02-.02.03c0,0-.01.02-.02.03,0,0,0,0,0,0-.07.08-.2.21-.4.31-.13.06-.29.11-.48.11h-1.47l1.7-3.45ZM84.45,31.73c-.11-.79.25-1.25.45-1.55.2-.31.57-.44.04-1.44-.52-.99.83-1.31.56-2.06-.24-.66.2-1.98,1.13-1.98.01,0,.02,0,.04,0,.01,0,.02,0,.04,0,.94,0,1.37,1.32,1.14,1.98-.27.75,1.07,1.07.56,2.06-.52,1-.16,1.13.04,1.44.2.3.56.76.45,1.55-.08.57-.91,1.03-1.57,1.3l-.06.02-.58-4.51-.58,4.52h-.03c-.67-.28-1.54-.76-1.62-1.34ZM80.65,49.94v-6.59h2.17l-2.17,6.59ZM82.52,46.59l.87-2.67,3.84,7.79h-1.47c-.58,0-.88-.42-.92-.48l-2.32-4.64ZM80.67,66v-6.59h2.17l-2.17,6.59ZM82.42,63.04l.96-2.95,1.68,3.98,2.21,5.23h-1.51c-.32,0-.55-.16-.7-.31-.12-.12-.19-.23-.2-.26l-2.43-5.68ZM72.47,24.49c-.72-.36-1.45-.7-2.19-1.03l.56-1.31c.76.34,1.52.69,2.26,1.07l-.63,1.27ZM65.75,22.09c.83.29,1.66.59,2.47.92l-.59,1.38c-.79-.32-1.59-.61-2.4-.9l.51-1.4ZM64.88,23.37c-.96-.33-1.94-.63-2.92-.9l.42-1.43c1.02.28,2.02.59,3.01.93l-.52,1.4ZM67.48,22.3l.5-1.34c.85.33,1.7.67,2.53,1.04l-.56,1.31c-.81-.36-1.64-.69-2.47-1.01ZM67.13,22.17c-.94-.35-1.89-.67-2.85-.97l.42-1.37c.99.31,1.97.64,2.93,1.01l-.5,1.34ZM63.93,21.08c-1.08-.33-2.17-.63-3.27-.89l.32-1.4c1.14.27,2.26.58,3.37.92l-.42,1.37ZM62.03,20.94l-.42,1.42c-.93-.25-1.87-.48-2.81-.68l.33-1.44c.98.21,1.94.44,2.9.69ZM60.3,20.11c-.95-.22-1.92-.42-2.89-.59l.24-1.42c1,.18,1.99.38,2.97.61l-.32,1.4ZM58.77,20.17l-.33,1.44c-.92-.19-1.85-.36-2.79-.5l.24-1.44c.97.14,1.93.31,2.88.51ZM57.05,19.47c-.89-.15-1.79-.28-2.7-.39l.16-1.43c.93.11,1.86.25,2.78.4l-.24,1.42ZM55.52,19.62l-.24,1.44c-.9-.13-1.81-.24-2.73-.32l.16-1.44c.94.08,1.88.19,2.81.33ZM53.98,19.04c-.9-.1-1.82-.18-2.73-.24l.08-1.44c.94.06,1.88.14,2.81.24l-.16,1.43ZM52.34,19.26l-.16,1.44c-.83-.07-1.67-.12-2.5-.15l.08-1.44c.87.03,1.73.08,2.58.15ZM50.88,18.78c-.93-.05-1.87-.08-2.81-.08v-1.44c.97,0,1.93.03,2.89.08l-.08,1.44ZM49.39,19.1l-.08,1.44c-.48-.01-.96-.02-1.43-.02s-.97,0-1.45.02l-.08-1.44c.51-.01,1.02-.02,1.53-.02s1.01,0,1.51.02ZM47.69,18.7c-.95,0-1.89.03-2.83.08l-.08-1.44c.96-.05,1.93-.08,2.91-.09v1.44ZM45.98,19.11l.08,1.44c-.84.03-1.67.08-2.5.14l-.16-1.44c.85-.07,1.71-.12,2.58-.15ZM41.76,19.04l-.16-1.43c.93-.1,1.87-.19,2.81-.25l.08,1.44c-.92.06-1.83.14-2.73.24ZM43.03,19.29l.15,1.44c-.92.08-1.82.19-2.73.31l-.24-1.42c.93-.13,1.87-.24,2.81-.33ZM38.7,19.47l-.24-1.42c.92-.16,1.84-.29,2.78-.4l.16,1.43c-.91.11-1.8.24-2.7.39ZM39.85,19.67l.24,1.42c-.94.14-1.87.3-2.79.49l-.32-1.4c.95-.19,1.91-.36,2.88-.51ZM35.44,20.12l-.32-1.4c.98-.23,1.97-.43,2.97-.61l.24,1.42c-.97.17-1.93.37-2.89.59ZM36.61,20.25l.32,1.4c-.95.2-1.88.42-2.81.67l-.41-1.38c.96-.26,1.92-.49,2.9-.7ZM30.34,21.97c.99-.34,2-.65,3.01-.93l.41,1.38c-.99.27-1.96.57-2.93.9l-.49-1.35ZM30.49,23.44c-.81.28-1.61.58-2.41.89l-.56-1.32c.81-.33,1.64-.63,2.47-.92l.5,1.35ZM31.81,21.09l-.42-1.37c1.11-.34,2.23-.64,3.37-.91l.32,1.4c-1.1.26-2.2.56-3.27.89ZM31.46,21.2c-.96.3-1.91.62-2.85.97l-.5-1.34c.96-.36,1.94-.7,2.93-1.01l.42,1.37ZM28.27,22.31c-.83.32-1.66.65-2.47,1.01l-.56-1.31c.83-.37,1.68-.71,2.53-1.03l.5,1.34ZM27.18,23.16l.56,1.32c-1.23.51-2.45,1.05-3.63,1.65l-.64-1.28c1.21-.61,2.45-1.17,3.71-1.69ZM24.27,26.49h0c7.11-3.57,15.13-5.59,23.62-5.59s16.51,2.02,23.63,5.58h0c.12.07.21.19.21.34,0,.21-.17.38-.38.38-.06,0-.11-.02-.16-.04-7.01-3.51-14.92-5.49-23.3-5.49s-16.28,1.98-23.29,5.49c-.01,0-.02.01-.03.02-.04.01-.08.03-.12.03-.21,0-.38-.17-.38-.38,0-.15.09-.28.21-.34ZM71.63,26.18c-1.2-.6-2.42-1.15-3.66-1.65l.59-1.38c1.27.52,2.51,1.08,3.73,1.69l-.66,1.33ZM76.24,16.88c-.72-.26-1.55.05-1.9.75l-1.8,3.6c-.22-.1-.44-.2-.66-.3l1.81-3.62c.53-1.07,1.79-1.52,2.88-1.08l-.33.65ZM62.56,11.85c-.83-.19-1.66.33-1.85,1.15l-.91,3.93v.03c-.25-.05-.48-.09-.72-.14l.92-3.99c.27-1.15,1.37-1.88,2.52-1.72,0,0,.15.03.21.04.06.01.19.05.19.05,1.1.36,1.77,1.5,1.51,2.66l-.93,4.01c-.23-.07-.47-.13-.7-.19v-.03s.93-3.95.93-3.95c.19-.83-.33-1.66-1.15-1.85ZM50.53,13.67v-1.77c1.13.05,2.26.14,3.38.25l.71,1.84c-1.35-.15-2.72-.26-4.09-.32ZM54.63,14.37l-.15,1.43-.04.32c-.59-.07-1.19-.12-1.79-.17l.13-1.76c.62.05,1.24.11,1.85.18ZM52.37,14.16l-.13,1.75c-.56-.04-1.13-.08-1.7-.1v-1.76c.61.03,1.22.07,1.83.11ZM46.35,15.76h0c-.24,0-.49.02-.73.03v-4.06c-.02-1.18.89-2.15,2.05-2.26,0,0,.13,0,.21,0,.07,0,.19,0,.19,0,1.16.1,2.07,1.06,2.07,2.24v4.07c-.23,0-.47-.02-.72-.03v-4.05c-.01-.85-.71-1.54-1.56-1.54-.85,0-1.54.7-1.54,1.55v4.04ZM32.05,13.76l.94,3.92c-.23.06-.47.13-.7.19l-.95-3.94c-.28-1.15.38-2.3,1.48-2.67,0,0,.14-.04.19-.05.05-.01.2-.04.2-.04,1.15-.17,2.26.55,2.54,1.7l.95,3.96c-.24.05-.48.09-.72.14l-.94-3.92c-.2-.83-1.03-1.34-1.86-1.14-.83.2-1.34,1.03-1.14,1.86ZM21.28,15.09l-.72-1.6c.53-.24,1.05-.47,1.59-.7l.04.04,1.39,1.27c-.77.32-1.54.64-2.3.99ZM23.88,14.38l1.45,1.33c-.61.24-1.21.48-1.81.74l-.69-1.63c.35-.15.69-.29,1.04-.43ZM22.47,14.97l.69,1.63c-.28.12-.56.24-.84.36-.37-.62-.96-1.03-1.62-1.19.59-.28,1.18-.54,1.78-.8ZM25.65,15.99l1.45,1.33c-1.29.48-2.56,1-3.81,1.56l-.79-1.58c1.03-.47,2.08-.9,3.14-1.31ZM26.07,15.83c.43-.16.86-.32,1.29-.47l-.19,1.48-1.1-1ZM25.03,18.54l.69,1.61c-.49.21-.99.41-1.47.63l-.78-1.56c.52-.23,1.04-.46,1.56-.67ZM25.4,18.38c.6-.25,1.21-.48,1.83-.71l.59,1.64c-.58.21-1.16.44-1.73.67l-.69-1.61ZM32.31,8.16c1.62-.39,3.25-.7,4.87-.96l-.32.9c-1.45.24-2.9.53-4.35.88-1.47.35-2.91.75-4.33,1.19l-.7-.66c1.58-.5,3.19-.96,4.84-1.35ZM30.25,8.3l-.4-1.44c.67-.18,1.35-.36,2.03-.52.68-.16,1.36-.3,2.05-.44l.28,1.47c-.66.14-1.32.27-1.98.43-.66.16-1.32.33-1.97.51ZM35.44,10.54l-.34-1.73c.57-.11,1.15-.21,1.72-.31l.05.07,1.05,1.53c-.83.13-1.66.27-2.48.44ZM38.16,10.44l1.12,1.62c-.54.08-1.09.16-1.63.25l-.3-1.74c.27-.04.54-.08.82-.13ZM36.95,10.64l.3,1.74c-.4.07-.79.13-1.19.21-.22-.69-.7-1.22-1.31-1.53.73-.15,1.46-.29,2.2-.42ZM34.08,10.82c-.31-.06-.63-.07-.95-.02l-.36-1.49c.65-.15,1.29-.29,1.94-.42l.34,1.73c-.32.07-.65.14-.97.21ZM30.94,13.81c-.38.11-.76.23-1.13.34l-.53-1.69c.71-.22,1.42-.42,2.14-.61-.41.55-.59,1.25-.48,1.96ZM28.15,12.42l.24-1.82v-.1c.56-.17,1.11-.34,1.67-.49l.48,1.69c-.8.22-1.6.46-2.39.72ZM30.93,11.59l-.48-1.69c.64-.17,1.28-.34,1.93-.5l.36,1.49c-.31.1-.58.25-.82.44-.33.08-.66.17-.99.26ZM28.9,12.58l.53,1.69c-.53.17-1.06.34-1.58.52l.26-1.95c.27-.09.53-.18.8-.26ZM31.01,14.18l.41,1.72c-1.32.38-2.62.8-3.9,1.26l.26-1.95c1.06-.37,2.14-.71,3.23-1.02ZM27.64,17.52c.57-.2,1.14-.4,1.71-.59l.51,1.67c-.55.18-1.11.37-1.65.57l-.56-1.65ZM29.73,16.81c.59-.19,1.18-.37,1.78-.54l.41,1.7c-.57.16-1.13.33-1.68.51l-.51-1.67ZM36.66,15.04c.6-.11,1.21-.22,1.81-.32l.28,1.74c-.56.09-1.12.19-1.68.29l-.41-1.71ZM36.58,14.68l-.41-1.72c1.11-.21,2.22-.39,3.35-.54l1.12,1.63c-1.37.16-2.72.38-4.06.63ZM40.72,14.41l.21,1.65v.09c-.59.07-1.18.15-1.78.24l-.28-1.73c.61-.09,1.23-.18,1.84-.25ZM40.85,13.65l-.89-1.3c.48-.06.96-.12,1.45-.17l-.56,1.46ZM41.16,13.98l.7-1.84c1.12-.11,2.24-.19,3.37-.24v1.76c-1.37.06-2.73.17-4.07.32ZM43.08,15.94c-.58.05-1.16.1-1.74.17v-.1s-.2-1.65-.2-1.65c.61-.07,1.22-.13,1.83-.18l.11,1.76ZM47.89,6.34c1.67,0,3.32.07,4.96.19l-.52.81c-1.47-.1-2.94-.15-4.44-.15s-3,.06-4.48.16l-.53-.81c1.66-.12,3.33-.2,5.02-.2ZM42.6,6.18l-.13-1.49c.97-.08,1.94-.13,2.92-.17l.06,1.5c-.94.04-1.91.09-2.85.17ZM45.79,4.5c.7-.02,1.39-.04,2.1-.04s1.4.02,2.09.04l-.06,1.49c-.67-.02-1.35-.04-2.03-.04s-1.36.02-2.04.04l-.06-1.5ZM50.32,6.01l.06-1.49c.96.03,1.92.09,2.87.16l-.11,1.39-.06.09c-.92-.07-1.84-.12-2.77-.15ZM50.39,9.36l.07-1.75c.58.02,1.16.06,1.74.1l.03.08.66,1.71c-.83-.06-1.66-.1-2.5-.13ZM53.04,9.88l.72,1.87c-.55-.05-1.09-.1-1.64-.14l.11-1.79c.27.02.54.04.81.05ZM50.05,7.6l-.07,1.76c-.33,0-.66-.02-.99-.02-.28-.13-.59-.22-.91-.24v-1.53c.66,0,1.32.02,1.98.04ZM47.67,9.1c-.32.03-.62.11-.9.24-.34,0-.68.01-1.02.02l-.08-1.76c.66-.02,1.33-.04,1.99-.04v1.53ZM43.51,7.81l.04-.1c.57-.04,1.15-.07,1.72-.1l.08,1.76c-.83.03-1.66.08-2.49.15l.65-1.71ZM43.55,9.85l.12,1.77c-.55.04-1.1.08-1.66.14l.7-1.84c.28-.02.56-.05.84-.07ZM45.24,14.04v1.76c-.58.03-1.17.06-1.75.1l-.11-1.76c.62-.05,1.24-.08,1.86-.11ZM44.07,11.59l-.12-1.77c.74-.05,1.48-.08,2.22-.1-.52.44-.86,1.08-.92,1.8-.4.02-.79.04-1.18.07ZM49.58,9.72c.75.02,1.5.05,2.24.09l-.11,1.79c-.4-.02-.8-.05-1.21-.07-.06-.72-.4-1.36-.92-1.8ZM54.37,12.19c.47.05.95.1,1.42.16l-.86,1.27-.56-1.44ZM54.88,15.77l.16-1.36c.61.07,1.22.16,1.82.25l-.3,1.73c-.57-.09-1.15-.17-1.73-.23l.04-.39ZM55.13,14.05l1.1-1.63c1.13.15,2.25.33,3.35.54l-.4,1.72c-1.34-.26-2.69-.47-4.05-.64ZM63.45,8.11c1.62.38,3.22.83,4.78,1.32l-.69.66c-1.41-.43-2.83-.82-4.28-1.16-1.47-.35-2.94-.63-4.4-.87l-.33-.91c1.64.26,3.28.57,4.93.96ZM61.54,7.31l.29-1.47c.68.14,1.37.28,2.05.44.68.16,1.35.34,2.03.52l-.4,1.44c-.65-.17-1.3-.35-1.96-.5-.66-.16-1.33-.3-1.99-.43ZM64.81,11.47c-.37-.1-.74-.19-1.12-.29-.21-.14-.44-.27-.69-.35l.35-1.49c.64.15,1.28.32,1.92.49l-.46,1.64ZM65.66,9.94c.56.16,1.12.32,1.68.49v.08s.26,1.8.26,1.8c-.79-.26-1.59-.5-2.39-.73l.46-1.65ZM66.49,12.36l-.53,1.75-.02.06c-.38-.12-.76-.25-1.14-.36.14-.77-.07-1.52-.53-2.09.74.2,1.48.41,2.22.64ZM68,15.22l.27,1.93v.03c-1.3-.46-2.6-.89-3.93-1.27l.4-1.72c1.1.31,2.19.66,3.26,1.03ZM66.33,14.29v-.03s.01,0,.01,0l.54-1.79c.26.08.51.17.77.25l.29,2.06c-.53-.18-1.07-.34-1.61-.5ZM60.68,10.51l.32-1.67c.65.13,1.3.27,1.95.42l-.35,1.49c-.26-.04-.51-.03-.75,0-.39-.08-.77-.17-1.16-.24ZM61.08,10.97c-.66.31-1.18.89-1.4,1.63-.38-.07-.77-.14-1.16-.21l.3-1.84c.76.13,1.51.26,2.26.42ZM58.9,8.46c.57.1,1.13.19,1.7.3l-.32,1.68c-.81-.15-1.62-.29-2.44-.41l1.06-1.57ZM58.43,10.49l-.3,1.83c-.55-.09-1.1-.17-1.66-.25l1.15-1.7c.27.04.54.08.81.12ZM57.26,14.72c.61.1,1.22.21,1.83.32l-.4,1.71c-.57-.11-1.15-.21-1.73-.3l.3-1.73ZM64.25,16.27c.59.17,1.17.35,1.76.53l-.53,1.67c-.54-.17-1.08-.34-1.63-.49l.4-1.71ZM66.39,16.93c.59.19,1.17.39,1.74.6l-.56,1.65c-.56-.2-1.13-.4-1.71-.58l.53-1.67ZM68.53,17.67c.62.23,1.23.47,1.84.71l-.69,1.61c-.57-.23-1.15-.46-1.73-.67l.58-1.64ZM72.23,14.07l1.35-1.24.04-.04c.53.22,1.06.46,1.59.7l-.72,1.6c-.75-.36-1.51-.7-2.26-1.02ZM75.06,15.78c-.65.16-1.24.58-1.61,1.19-.28-.13-.56-.24-.84-.36l.7-1.65c.58.27,1.17.54,1.75.83ZM72.94,14.78l-.7,1.66c-.6-.26-1.2-.5-1.81-.74l1.49-1.36c.34.14.68.29,1.02.44ZM73.27,17.3l-.79,1.58c-1.25-.56-2.52-1.08-3.81-1.56l1.45-1.33c1.06.41,2.11.84,3.14,1.31ZM68.63,16.81l-.2-1.45c.43.15.85.31,1.28.47l-1.08.98ZM70.74,18.54c.52.22,1.05.44,1.56.67l-.78,1.56c-.49-.22-.98-.42-1.47-.63l.69-1.61ZM76.73,15.89s-.05-.02-.07-.03c-.3-.12-.62-.17-.93-.17h0c-.29-.15-.59-.29-.88-.43l.72-1.61c.62.28,1.23.58,1.83.88l-.69,1.36ZM77.59,14.19c-1.27-.64-2.57-1.23-3.88-1.78v-.08s-.15-.9-.15-.9c1.4.58,2.83,1.22,4.19,1.89.07.03.45.22.7.34l-.86.52ZM74.81,11.56l.62-1.36c.8.35,1.6.71,2.38,1.09l-.62,1.36c-.78-.38-1.58-.74-2.38-1.09ZM78.79,13.44c-.22-.11-1.11-.55-1.24-.61l.62-1.36c.15.07.31.14.45.21.07.03.69.36.84.43l-.68,1.33ZM79.69,8l.96.44.47.24.08.04h.01s-.7,1.36-.7,1.36c-.39-.2-.95-.47-1.49-.74l.66-1.34ZM80.34,10.42l-.71,1.37c-.21-.11-1.94-.98-2.5-1.24l.62-1.41c.73.35,1.91.94,2.59,1.28ZM75.47,6.07l1.75.8-.65,1.33c-.56-.24-1.11-.48-1.68-.71l.57-1.42ZM74.76,7.84c.88.36,1.76.74,2.63,1.14l-.62,1.41c-.85-.39-1.72-.77-2.59-1.12l.57-1.42ZM73.53,10.89l.51-1.27c.34.14.67.29,1.01.43l-.62,1.36c-.3-.13-.65-.28-.95-.4l.04-.12ZM71.47,11.92c.58.22,1.17.45,1.74.69l-1.4,1.28c-.32-.13-.63-.26-.94-.39l.6-1.58ZM71.51,14.17l-1.5,1.37c-.55-.21-1.09-.41-1.65-.6l-.29-2.07c1.15.39,2.3.83,3.44,1.3ZM69.38,11.09l-.57,1.65c-.26-.09-.53-.19-.79-.28l-.26-1.9c.62.19,1.02.32,1.63.53ZM68.62,9.05l-.08.08c-.88-.28-1.76-.54-2.66-.78l.4-1.44c.93.25,1.85.52,2.76.81l-.43,1.33ZM69.17,7.36c-.2-.06-.41-.12-.61-.18l.44-1.47c.21.07.43.13.64.19l-.47,1.46ZM68.49,3.6c.58.17,1.15.33,1.72.51l-.46,1.43c-.56-.17-1.12-.34-1.68-.5l.41-1.44ZM68.61,5.6l-.44,1.47c-1.32-.4-2.65-.77-4.01-1.09l.35-1.49c1.39.33,2.75.71,4.11,1.12ZM63.47,2.32c.42.09.84.19,1.26.28.42.1.84.21,1.26.32l-.38,1.45c-.41-.1-.81-.22-1.22-.31-.41-.1-.81-.18-1.22-.27l.3-1.47ZM61.02,3.74c1.03.19,2.06.4,3.09.64l-.35,1.49c-1.36-.32-2.71-.59-4.07-.81l.25-1.5c.23.04.45.07.68.11h0s.4.08.4.08h0ZM59.1,1.5c.61.1,1.23.2,1.84.31l-.26,1.49c-.6-.11-1.2-.2-1.8-.3l.22-1.5ZM58.83,3.37c.24.04.48.08.72.12l-.25,1.5c-.23-.04-.46-.07-.69-.11l.22-1.51ZM58.55,5.26c.96.15,1.92.31,2.88.5l-.29,1.47c-.93-.18-1.85-.34-2.78-.48l-.03-.08.21-1.4ZM56.77,8.2v-.07c.64.08,1.07.15,1.69.25l-1.06,1.57c-.28-.04-.56-.07-.84-.1l.21-1.65ZM57.17,10.3l-1.15,1.7c-.6-.08-1.2-.15-1.8-.21l-.73-1.88c1.25.1,2.47.22,3.68.39ZM54.35,7.88l-.17,1.71c-.28-.02-.56-.04-.84-.07l-.69-1.79c.64.04,1.07.08,1.7.14ZM53.29,4.3c-.21-.01-.43-.02-.64-.04l.1-1.53c.22.02.45.03.67.04l-.12,1.53ZM51.77.8c.6.03,1.2.06,1.8.11l-.12,1.49c-.58-.04-1.16-.07-1.75-.1l.07-1.5ZM52.34,2.71l-.1,1.53c-1.37-.09-2.76-.14-4.15-.15v-1.53c1.42,0,2.84.06,4.25.15ZM46.59.69c.43,0,.86-.01,1.3-.01s.86.02,1.3.03l-.04,1.5c-.42,0-.84-.03-1.26-.03s-.83,0-1.25.02l-.05-1.5h0ZM44.52,2.65h0c1.05-.06,2.1-.08,3.16-.09v1.53c-1.39,0-2.77.05-4.14.14l-.1-1.52c.23-.01.46-.03.69-.05h0s.4-.02.4-.02ZM42.15.89c.62-.04,1.24-.09,1.87-.12l.08,1.51c-.61.03-1.22.08-1.82.12l-.13-1.51ZM42.31,2.79c.24-.02.48-.03.72-.05l.1,1.52c-.23.02-.47.03-.7.05l-.13-1.52ZM43.1,7.74l-.03.08-.66,1.73c-.27.02-.55.05-.82.08h0s-.18-1.68-.18-1.68v-.07c.62-.06,1.06-.09,1.69-.14ZM42.26,9.95l-.7,1.84c-.61.06-1.23.13-1.84.21l-1.12-1.63c1.21-.18,2.43-.32,3.66-.43ZM38.95,8.17l.23,1.75c-.27.04-.55.07-.82.11l-1.11-1.61c.64-.11,1.06-.17,1.69-.25ZM37.36,6.69l-.04.1c-.91.14-1.82.31-2.73.49l-.28-1.47c.94-.19,1.89-.36,2.83-.51l.21,1.38ZM37.09,4.93c-.21.04-.42.08-.63.11l-.26-1.51c.22-.04.44-.08.66-.11l.23,1.51ZM36.58,1.56l.23,1.48c-.57.09-1.15.2-1.73.3l-.27-1.47c.59-.11,1.18-.22,1.77-.31ZM35.8,3.6l.26,1.51c-1.36.23-2.72.5-4.07.82l-.36-1.49c1.39-.33,2.78-.6,4.17-.84ZM31,2.66c.42-.1.85-.19,1.27-.27l.31,1.46c-.41.09-.82.17-1.23.27-.41.1-.81.2-1.21.3l-.39-1.45c.42-.11.84-.21,1.26-.31ZM27.8,5.45h0s.39-.11.39-.11h0c1.01-.3,2.02-.57,3.05-.82l.36,1.49c-1.35.33-2.69.69-4,1.09l-.45-1.45c.22-.07.44-.14.66-.2ZM25.47,4.19c.59-.19,1.19-.37,1.79-.55l.43,1.45c-.59.17-1.17.35-1.75.54l-.47-1.44ZM26.54,7.45l-.48-1.45c.23-.07.46-.14.69-.22l.45,1.46c-.22.07-.45.14-.67.21ZM27.16,9.21l-.07-.06-.44-1.35c.93-.3,1.86-.58,2.8-.84l.4,1.44c-.91.25-1.81.52-2.7.81ZM27.98,10.63v.09s-.25,1.84-.25,1.84c-.26.09-.52.18-.78.27v-.02s-.57-1.58-.57-1.58l-.02-.07c.6-.21,1.01-.34,1.62-.53ZM27.67,12.97l-.26,1.96c-.56.19-1.11.4-1.66.6l-1.46-1.33c1.11-.44,2.24-.85,3.38-1.23ZM24.3,11.92l.62,1.64c-.31.12-.62.24-.93.36l-1.43-1.31c.58-.24,1.16-.47,1.75-.69ZM22.24,10.89l.04.12c-.3.12-.65.28-.95.4l-.62-1.36c.34-.14.67-.29,1.01-.43l.51,1.27ZM20.97,11.56c-.8.35-1.6.71-2.38,1.09l-.62-1.36c.79-.38,1.58-.74,2.38-1.09l.62,1.36ZM20.3,6.07l.57,1.42c-.56.23-1.12.47-1.68.71l-.65-1.33,1.75-.8ZM21.01,7.84l.57,1.42c-.87.36-1.73.73-2.59,1.12l-.61-1.41c.87-.4,1.74-.77,2.63-1.14ZM14.56,8.73h0s.08-.05.08-.05l.47-.24.96-.44.67,1.34c-.54.27-1.1.54-1.49.74l-.7-1.35ZM15.43,10.42c.68-.34,1.86-.93,2.59-1.28l.62,1.41c-.56.26-2.29,1.13-2.5,1.24l-.71-1.37ZM16.3,12.11c.15-.08.77-.4.84-.43.15-.07.3-.14.45-.21l.62,1.36c-.12.06-1.02.5-1.24.61l-.68-1.33ZM17.33,13.67c.25-.12.64-.31.7-.34,1.36-.67,2.78-1.31,4.19-1.89l-.14.9v.08c-1.32.55-2.62,1.14-3.89,1.78l-.86-.52ZM19.04,15.89l-.69-1.36c.6-.3,1.22-.59,1.83-.88l.72,1.6c-.31.14-.62.29-.93.44-.29,0-.59.06-.87.17-.01,0-.05.02-.07.03ZM21.43,17.63c-.35-.71-1.18-1.01-1.9-.75l-.33-.65c1.09-.44,2.34.01,2.88,1.08l1.81,3.62c-.22.1-.44.2-.66.3l-1.8-3.6ZM22.47,22.87c-.05.03-.11.04-.17.04-.22,0-.39-.18-.39-.4,0-.15.08-.27.2-.34,1.9-.95,3.84-1.79,5.83-2.53h0s.01,0,.03-.01c6.29-2.31,13.01-3.52,19.91-3.52,9.1,0,17.88,2.1,25.79,6.06.12.07.2.19.2.34,0,.22-.18.4-.39.4-.06,0-.12-.02-.17-.04h0c-7.65-3.83-16.28-5.99-25.42-5.99s-17.76,2.16-25.41,5.99h0ZM23.3,24.49l-.63-1.27c.74-.37,1.48-.72,2.24-1.06l.56,1.31c-.73.33-1.45.66-2.16,1.02ZM18.05,28.15h59.65v23.09H18.05v-23.09ZM37.55,90.07c1.98,0,7.73-1.04,10.52-1.05h0s.02,0,.02,0c0,0,.02,0,.02,0h0c2.78.01,8.53,1.05,10.52,1.05s8.28-1.03,10.46-1.05h0s.02,0,.03,0c0,0,.02,0,.03,0h0c.34,0,.73.02,1.15.05-1.52,1.73-3.23,3.28-5.1,4.62-2.53.3-5.37.69-6.57.69-1.98,0-7.73-1.03-10.52-1.05h0s-.02,0-.02,0c0,0-.02,0-.02,0h0c-2.78.01-8.53,1.05-10.52,1.05-1.28,0-4.44-.44-7.08-.75-1.83-1.32-3.51-2.84-4.99-4.53.57-.05,1.1-.08,1.55-.08h0s.01,0,.02,0c0,0,.01,0,.02,0h0c2.16.01,8.53,1.05,10.49,1.05ZM47.88,100.14c10.06,0,19-4.86,24.61-12.36.08.35.24.73.51,1.16-6,7.73-15.31,12.32-25.11,12.32s-19.08-4.58-25.08-12.28c.27-.41.43-.79.52-1.13,5.61,7.46,14.53,12.29,24.56,12.29ZM69.09,78.39l-5.26,5.26-5.26-5.26-5.26,5.26-5.26-5.26-5.26,5.26-5.26-5.26-5.26,5.26-5.26-5.26-5.33,5.33c-1.47-2.69-2.55-5.63-3.13-8.74h58.61c-.57,3.02-1.59,5.87-3,8.49l-5.09-5.08ZM26.82,61.15l-2.21-1.61-2.21,1.61.84-2.6-2.21-1.61h2.73l.84-2.6.84,2.6h2.73l-2.21,1.61.84,2.6ZM23.76,66.65l.84-2.6.84,2.6h2.73l-2.21,1.61.84,2.6-2.21-1.61-2.21,1.61.84-2.6-2.21-1.61h2.73ZM38.69,57.55c-.02-.23-.06-.42-.14-.57-.08-.15-.19-.26-.35-.35-.16-.09-.37-.17-.65-.25v-.72h6.35c1.84,0,3.22.33,4.14.99.92.66,1.38,1.67,1.38,3.04,0,.97-.21,1.81-.64,2.52-.43.71-1.05,1.25-1.87,1.62-.82.37-1.83.55-3.06.55-.71,0-1.29-.01-1.74-.04v3.5c0,.48.02.82.05,1.02s.1.36.18.48c.08.12.2.22.36.3.16.08.4.15.73.21v.72h-5.88v-.72c.27-.07.48-.15.64-.23.16-.08.27-.2.35-.35.08-.15.12-.34.15-.57.02-.23.03-.52.03-.87v-9.42c0-.34,0-.63-.03-.86ZM47.55,69.35c0,.67-.55,1.22-1.22,1.22s-1.22-.55-1.22-1.22.55-1.22,1.22-1.22,1.22.55,1.22,1.22ZM53.3,57.54c-.02-.23-.07-.41-.14-.56-.08-.15-.19-.27-.35-.35-.16-.09-.37-.17-.65-.24v-.72h5.74v.72c-.3.08-.52.17-.66.26-.14.09-.25.2-.32.33-.07.13-.12.3-.15.51-.03.21-.04.52-.04.93v9.42c0,.26,0,.49.02.71.02.22.04.4.09.53.04.14.11.26.19.35.08.09.2.18.34.25.15.07.32.13.54.18v.72h-5.74v-.72c.27-.07.48-.15.64-.23.16-.08.27-.2.35-.35.08-.15.12-.34.15-.57.02-.23.03-.52.03-.87v-9.43c0-.35,0-.64-.03-.86ZM59.57,69.35c0-.67.55-1.22,1.22-1.22s1.22.55,1.22,1.22-.55,1.22-1.22,1.22-1.22-.55-1.22-1.22ZM73.26,61.15l-2.21-1.61-2.21,1.61.84-2.6-2.21-1.61h2.73l.84-2.6.84,2.6h2.73l-2.21,1.61.84,2.6ZM70.21,66.65l.84-2.6.84,2.6h2.73l-2.21,1.61.84,2.6-2.21-1.61-2.21,1.61.84-2.6-2.21-1.61h2.73ZM15.09,59.42v6.59l-2.17-6.59h2.17ZM12.38,60.09l.96,2.95-2.43,5.68c-.04.08-.34.57-.91.57h-1.51l3.89-9.2ZM15.12,43.35v6.59l-2.17-6.59h2.17ZM12.37,43.92l.87,2.67-2.32,4.64c-.04.06-.34.48-.92.48h-1.47l3.84-7.79ZM6.87,31.73c-.11-.79.25-1.25.45-1.55.2-.31.56-.44.04-1.44-.51-.99.83-1.31.56-2.06-.23-.66.2-1.98,1.14-1.98.01,0,.02,0,.04,0s.02,0,.04,0c.94,0,1.37,1.32,1.13,1.98-.27.75,1.08,1.07.56,2.06-.52,1-.16,1.13.04,1.44.2.3.56.76.45,1.55-.08.58-.95,1.05-1.62,1.33h-.03s-.58-4.51-.58-4.51l-.58,4.51-.06-.02c-.66-.27-1.49-.74-1.57-1.3ZM3.1,41.17v-6.58h2.17l-2.17,6.58ZM4.97,37.82l.87-2.67,3.84,7.79h-1.47c-.58,0-.88-.42-.92-.48l-2.32-4.64ZM3.1,57.21v-6.58h2.17l-2.17,6.58ZM4.84,54.25l.96-2.95,3.89,9.2h-1.51c-.57,0-.87-.5-.91-.57l-2.43-5.68ZM3.07,70.44h1.24c.41,0,.75.34.75.75s-.34.75-.75.75h-1.24v-1.5ZM1.48,72.67h2.83c.27,0,.53-.08.75-.21v1.7H1.48c-.41,0-.75-.34-.75-.75s.34-.75.75-.75ZM4.31,89.31h-1.24v-1.49h1.24c.41,0,.75.34.75.75s-.34.75-.75.75ZM5.06,87.29c-.22-.13-.48-.21-.75-.21H1.48c-.41,0-.75-.34-.75-.75s.34-.75.75-.75h3.58v1.7ZM1.48,84.86c-.27,0-.53.08-.75.2v-3.5h0v-.1c0-.39.16-.76.44-1.04.2-.19.24-.23.32-.31l.27-.26-.02-.02.02-.02c-.17-.17-.23-.23-.29-.29-.07-.07-.12-.12-.29-.29-.28-.27-.44-.64-.44-1.04v-.08h0v-3.43c.22.13.47.21.75.21h14.38c.91,0,1.71.53,2.07,1.34.71,3.11,1.89,6.03,3.46,8.71-.23-.06-.46-.09-.67-.09h-.01c-.13,0-.28,0-.44,0h-2.36c-.14,0-.22,0-.22,0h0s-16.19,0-16.19,0ZM16.46,95.91c-.08.21-.14.43-.17.66-.17-.36-.26-.76-.27-1.16,0-.29.55-3.41.95-5.69.44-2.49.63-3.62.71-4.13h.01c.21,0,2.03,0,3.01,0h0c.44,0,.98.18,1.38.51.17.26.34.52.52.77.15.57-.06,1.25-.63,2-1.12,1.48-2.63,3.23-3.69,4.44l-.18.21c-.49.55-1.02,1.15-1.39,1.84-.11.19-.19.38-.25.56ZM78.69,97.59c-.03.07-.17.28-.2.32-.06.07-.13.14-.19.2-7.87,8.37-18.91,13.16-30.41,13.16s-22.64-4.83-30.52-13.28c-.33-.47-.64-1.35.17-2.56.17-.26.39-.56.64-.89.16-.18.32-.36.47-.54l.19-.21c1.01-1.14,2.4-2.76,3.51-4.19,6.14,7.79,15.59,12.4,25.53,12.4,6.09,0,11.99-1.73,17.06-4.86-.01.11-.06.25-.14.44-.13.32-.16.54-.08.67.12.19.32.2.6.02.23-.15.48-.45.78-.92.31-.51.4-.86.28-1.05-.02-.03-.04-.05-.06-.07,2.67-1.84,5.08-4.08,7.12-6.68,1.11,1.44,2.52,3.08,3.54,4.23l.19.21c.7.78,1.48,1.67,1.64,2.7,0,.08.01.15.01.22,0,.25-.05.47-.13.66ZM79.82,95.4c0,.43-.1.84-.29,1.22-.19-1.26-1.05-2.23-1.83-3.1,0,0-2.75-3.17-3.88-4.65-.63-.83-.82-1.58-.56-2.19.1-.14.19-.28.28-.42.41-.44,1.06-.66,1.56-.67,1.04,0,3.03,0,3.03,0h0s.02,0,.02,0c.08.51.27,1.63.71,4.13.4,2.28.94,5.39.95,5.68ZM92.67,89.31h-1.24c-.41,0-.75-.34-.75-.75s.34-.75.75-.75h1.24v1.49ZM95.01,86.34h0c0,.41-.34.75-.75.75h-2.83c-.27,0-.53.08-.75.21v-1.7h3.55s.01,0,.02,0c0,0,.01,0,.02,0,.41,0,.74.33.75.74h0ZM95.01,77.24v.96c0,.4-.16.76-.44,1.04-.17.17-.23.22-.29.29-.06.06-.12.12-.29.29l.02.02-.02.02.27.26c.08.08.12.12.32.31.28.27.44.64.44,1.04v3.6c-.22-.13-.47-.2-.75-.2,0,0-.01,0-.02,0,0,0-.01,0-.02,0h-18.39s-.05,0-.08,0c-.23,0-.45,0-.64,0h-.01c-.21,0-.44.03-.67.08.57-.96,1.38-2.47,2.08-4.33.71-1.89,1.26-3.94,1.27-3.97.24-1.03,1.15-1.74,2.21-1.74h14.25s0,0,.01,0c0,0,0,0,.01,0,.27,0,.53-.08.75-.2v2.55ZM94.26,74.16s0,0-.01,0c0,0,0,0-.01,0h-3.56v-1.7c.22.13.48.21.75.21h2.83c.41,0,.75.34.75.75s-.33.75-.75.75Z"/>
      <path class="cls-1" d="M3.73,77.66v.65h.71v4.46h.92v-5.85h-.62c-.14.39-.3.74-1.01.74Z"/>
      <polygon class="cls-1" points="6.21 77.76 8.04 77.76 6.69 82.78 7.61 82.78 8.97 77.73 8.97 76.93 6.21 76.93 6.21 77.76"/>
      <path class="cls-1" d="M12.53,78.33c0-.94-.47-1.47-1.37-1.47s-1.37.54-1.37,1.47v.57h.87v-.63c0-.42.18-.58.48-.58s.48.14.48.67c0,.63-.2,1.09-.9,1.83-.69.72-.92,1.21-.92,1.87v.72h2.66v-.84h-1.74s0-.08,0-.13c0-.31.15-.58.69-1.17.85-.91,1.14-1.54,1.14-2.32Z"/>
      <path class="cls-1" d="M14.82,76.86c-.9,0-1.4.54-1.4,1.47v1.07c0,.86.34,1.34,1.02,1.34.41,0,.68-.18.84-.51h.02v1.06c0,.56-.18.72-.51.72-.29,0-.48-.16-.48-.58v-.21h-.87v.15c0,.94.47,1.47,1.37,1.47.95,0,1.4-.53,1.4-1.52v-2.99c0-.94-.49-1.47-1.4-1.47ZM15.3,79.33c0,.42-.18.58-.48.58s-.48-.16-.48-.58v-1.05c0-.42.18-.57.48-.57s.48.15.48.57v1.05Z"/>
      <polygon class="cls-1" points="47.82 42.64 45.93 45.35 46.8 45.35 47.82 48.42 48.83 45.35 49.7 45.35 47.82 42.64"/>
      <polygon class="cls-1" points="51.44 46.63 49.63 49.32 52.68 48.23 53.22 48.92 54.2 45.77 50.91 45.95 51.44 46.63"/>
      <polygon class="cls-1" points="44.54 45.95 41.25 45.77 42.24 48.92 42.77 48.23 45.82 49.32 44.01 46.63 44.54 45.95"/>
      <rect class="cls-1" x="38.04" y="34.82" width="2" height="8.82"/>
      <polygon class="cls-1" points="44.96 39.08 50.86 39.08 50.86 43.64 52.85 43.64 52.85 34.82 50.86 34.82 50.86 37.34 48.6 37.34 48.6 33.47 50.45 33.47 50.45 32.07 48.6 32.07 48.6 30.2 47.2 30.2 47.2 32.07 45.36 32.07 45.36 33.47 47.2 33.47 47.2 37.34 44.96 37.34 44.96 34.82 42.96 34.82 42.96 43.64 44.96 43.64 44.96 39.08"/>
      <path class="cls-1" d="M59.41,38.41c-1.14-.43-1.64-.68-1.64-1.24,0-.46.42-.85,1.28-.85s1.49.25,1.85.42l.45-1.61c-.52-.24-1.26-.45-2.25-.45-2.08,0-3.34,1.15-3.34,2.66,0,1.28.96,2.09,2.42,2.6,1.06.38,1.48.69,1.48,1.24,0,.58-.48.96-1.4.96-.85,0-1.67-.27-2.21-.55l-.41,1.65c.5.27,1.49.55,2.5.55,2.42,0,3.56-1.27,3.56-2.75,0-1.24-.73-2.05-2.29-2.63Z"/>
      <rect class="cls-1" x="114.15" y="20.18" width="11.84" height="39.11"/>
      <polygon class="cls-1" points="162.99 20.18 130.22 20.18 130.22 30.5 140.71 30.5 140.71 59.29 152.56 59.29 152.56 30.5 162.99 30.5 162.99 20.18"/>
      <path class="cls-1" d="M173.84,54.25h15.01l1.52,5.04h12.84l-14.42-39.11h-14.89l-14.42,39.11h12.84l1.52-5.04ZM181.35,30.62l4.46,13.78h-8.91l4.46-13.78Z"/>
      <path class="cls-1" d="M222.98,60c7.68,0,13.55-3.11,17.88-7.92v-15.72h-19.06v9.73h7.56v1.7c-1.52,1.11-3.87,1.76-6.39,1.76-5.69,0-9.5-4.34-9.5-9.79s3.81-9.79,9.5-9.79c3.34,0,5.92,1.88,7.21,4.28l9.97-5.1c-2.7-5.04-8.09-9.62-17.18-9.62-11.85,0-21.52,7.68-21.52,20.23s9.67,20.23,21.52,20.23Z"/>
      <path class="cls-1" d="M264.96,60c13.19,0,18.76-7.1,18.76-16.83v-22.99h-12.02v22.64c0,3.75-1.93,6.74-6.74,6.74s-6.8-2.99-6.8-6.74v-22.64h-12.02v23.05c0,9.68,5.63,16.77,18.82,16.77Z"/>
      <path class="cls-1" d="M297.91,20.18l-14.43,39.11h12.84l1.53-5.04h15.01l1.52,5.04h12.84l-14.42-39.11h-14.89ZM300.9,44.4l4.46-13.78,4.46,13.78h-8.91Z"/>
      <rect class="cls-1" x="329.33" y="20.18" width="11.85" height="39.11"/>
      <polygon class="cls-1" points="331.5 16.9 338.54 16.9 347.63 8.45 338.54 8.45 331.5 16.9"/>
      <path class="cls-1" d="M119.98,66.51h-5.73v14.27h1.78v-5.67h3.96c2.82,0,4.47-1.97,4.47-4.3s-1.6-4.3-4.47-4.3ZM119.77,73.53h-3.74v-5.43h3.74c1.69,0,2.85,1.11,2.85,2.72s-1.16,2.72-2.85,2.72Z"/>
      <path class="cls-1" d="M149.02,70.81c0-2.63-1.86-4.3-4.47-4.3h-5.73v14.27h1.78v-5.67h2.85l3.64,5.67h2.1l-3.85-5.82c1.95-.17,3.7-1.58,3.7-4.15ZM140.59,73.55v-5.46h3.74c1.69,0,2.85,1.11,2.85,2.72s-1.16,2.74-2.85,2.74h-3.74Z"/>
      <polygon class="cls-1" points="173.18 79.2 165.6 79.2 165.6 74.28 173.03 74.28 173.03 72.69 165.6 72.69 165.6 68.09 173.18 68.09 173.18 66.51 163.83 66.51 163.83 80.78 173.18 80.78 173.18 79.2"/>
      <polygon class="cls-1" points="188.01 80.78 189.78 80.78 189.78 74.28 197.21 74.28 197.21 72.69 189.78 72.69 189.78 68.09 197.36 68.09 197.36 66.51 188.01 66.51 188.01 80.78"/>
      <polygon class="cls-1" points="211.78 80.78 221.13 80.78 221.13 79.2 213.55 79.2 213.55 74.28 220.98 74.28 220.98 72.69 213.55 72.69 213.55 68.09 221.13 68.09 221.13 66.51 211.78 66.51 211.78 80.78"/>
      <rect class="cls-1" x="235.96" y="66.51" width="1.78" height="14.27"/>
      <polygon class="cls-1" points="262.92 66.51 252.09 66.51 252.09 68.09 256.61 68.09 256.61 80.78 258.38 80.78 258.38 68.09 262.92 68.09 262.92 66.51"/>
      <path class="cls-1" d="M288.92,75.22v-8.71h-1.78v8.69c0,2.61-1.41,4.26-4.04,4.26s-4.04-1.65-4.04-4.26v-8.69h-1.78v8.73c0,3.51,1.95,5.8,5.82,5.8s5.82-2.27,5.82-5.82Z"/>
      <path class="cls-1" d="M314.46,70.81c0-2.63-1.86-4.3-4.47-4.3h-5.73v14.27h1.78v-5.67h2.85l3.64,5.67h2.1l-3.85-5.82c1.95-.17,3.7-1.58,3.7-4.15ZM306.04,73.55v-5.46h3.74c1.69,0,2.85,1.11,2.85,2.72s-1.16,2.74-2.85,2.74h-3.74Z"/>
      <path class="cls-1" d="M333.53,66.51l-5.73,14.27h1.97l1.26-3.17h7.23l1.26,3.17h1.97l-5.76-14.27h-2.2ZM331.54,76.03l3.1-7.94,3.08,7.94h-6.18Z"/>
      <polygon class="cls-1" points="170.74 97.07 166.73 90.04 165.69 90.04 165.69 100.32 166.7 100.32 166.7 91.95 170.44 98.45 171.07 98.45 174.79 91.95 174.79 100.32 175.81 100.32 175.81 90.04 174.78 90.04 170.74 97.07"/>
      <path class="cls-1" d="M183.87,99.13v-3.47c0-.93-.27-1.66-.81-2.19-.54-.53-1.27-.79-2.2-.79-.49,0-.98.08-1.45.25-.47.17-.96.42-1.45.76l.38.69c.42-.29.83-.51,1.22-.66.39-.15.79-.22,1.19-.22.67,0,1.19.19,1.56.56.38.37.56.88.56,1.51v.64c-.31-.12-.66-.2-1.06-.26-.4-.06-.78-.09-1.14-.09-.63,0-1.18.09-1.66.28-.48.19-.85.45-1.12.79-.27.34-.41.75-.41,1.22,0,.42.11.81.33,1.16.22.35.52.63.91.83.39.21.83.31,1.31.31.56,0,1.11-.12,1.65-.35.54-.24.98-.57,1.32-1.01v.55c.02.16.09.32.22.46.12.14.31.22.55.23.04,0,.1,0,.17,0,.08,0,.17-.02.27-.03v-.78c-.13,0-.22-.05-.27-.11-.06-.06-.09-.16-.09-.29ZM182.89,98.02c0,.1-.03.21-.09.33-.06.12-.14.25-.25.39-.22.29-.54.52-.95.7s-.85.27-1.32.27c-.38,0-.71-.08-.98-.24-.28-.16-.49-.36-.64-.6s-.22-.5-.22-.78c0-.48.22-.86.65-1.13.43-.28,1-.42,1.71-.42.36,0,.71.03,1.06.1.35.07.69.16,1.02.29v1.09Z"/>
      <rect class="cls-1" x="186" y="89.75" width=".98" height="1.45"/>
      <rect class="cls-1" x="186" y="92.77" width=".98" height="7.54"/>
      <path class="cls-1" d="M193.19,96.57c-.42-.16-.92-.31-1.49-.47-.4-.12-.73-.22-1-.32s-.47-.23-.61-.37c-.13-.15-.2-.36-.2-.63,0-.33.09-.58.27-.77s.41-.32.69-.4c.28-.08.57-.12.88-.12.45,0,.87.07,1.24.22.37.15.69.38.96.69l.48-.67c-.28-.33-.64-.58-1.09-.77-.44-.18-.96-.28-1.53-.28-.53,0-1.01.08-1.44.25-.43.17-.77.41-1.01.73-.25.32-.37.73-.37,1.22,0,.39.09.71.27.96.18.24.44.45.8.6.35.16.79.31,1.31.45.46.12.86.22,1.19.32.33.1.59.23.77.39.18.16.27.39.27.68,0,.44-.18.78-.55,1.01-.37.23-.84.35-1.43.35-.48,0-.94-.09-1.37-.27-.43-.18-.86-.47-1.28-.86l-.4.69c.38.42.84.72,1.38.93.53.2,1.1.3,1.72.3.87,0,1.57-.2,2.1-.59.53-.39.8-.94.8-1.64,0-.45-.12-.8-.35-1.05-.23-.25-.56-.45-.98-.61Z"/>
      <path class="cls-1" d="M206.09,93.88c-.32-.36-.69-.66-1.13-.87-.43-.22-.91-.32-1.43-.32-.57,0-1.11.15-1.61.44-.5.29-.9.67-1.2,1.14v-1.47h-.88v10.6h.98v-4.64c.29.48.68.88,1.18,1.21s1.06.49,1.69.49c.69,0,1.28-.18,1.79-.53.51-.36.91-.83,1.19-1.42.28-.59.43-1.24.43-1.94,0-.5-.09-.98-.27-1.45-.18-.47-.43-.88-.75-1.25ZM205.92,97.69c-.13.36-.31.68-.54.97-.24.29-.52.52-.85.68-.33.17-.7.25-1.12.25-.37,0-.72-.08-1.06-.25s-.64-.39-.91-.67c-.26-.28-.47-.6-.62-.96v-2.3c.04-.25.14-.48.3-.7s.37-.42.62-.6c.25-.18.5-.31.78-.41.27-.1.53-.14.78-.14.4,0,.76.08,1.1.24.34.16.64.38.9.66.26.28.46.6.6.96.14.36.21.75.21,1.15s-.06.75-.19,1.11Z"/>
      <path class="cls-1" d="M213.96,93.22c-.56-.35-1.21-.53-1.95-.53s-1.37.17-1.94.52c-.57.35-1.02.82-1.34,1.4-.32.58-.49,1.23-.49,1.93,0,.54.09,1.04.28,1.51.19.47.45.89.79,1.25.34.36.74.64,1.2.85.46.21.96.31,1.51.31.49,0,.95-.08,1.38-.24s.8-.38,1.12-.67c.32-.29.55-.61.71-.97l-.85-.23c-.17.41-.48.73-.92.98-.44.25-.91.38-1.4.38s-.93-.12-1.34-.37-.74-.58-1-.99-.41-.9-.46-1.43h6.46s.01-.09.01-.17v-.22c0-.69-.16-1.33-.48-1.91-.32-.58-.75-1.05-1.31-1.4ZM209.25,96.2c.04-.53.19-1.01.44-1.43.26-.42.59-.74.99-.97.4-.23.85-.35,1.35-.35s.94.12,1.35.35.74.56,1,.97.4.89.44,1.43h-5.57Z"/>
      <path class="cls-1" d="M220.6,92.74c-.48.04-.94.22-1.37.55-.43.33-.77.76-1.04,1.29v-1.78h-.93v7.51h.98v-4.69c.2-.61.55-1.09,1.05-1.43.5-.35,1.07-.53,1.73-.55v-.9s-.11-.01-.18-.01-.16,0-.25.01Z"/>
      <path class="cls-1" d="M225.3,99.41c-.22.09-.47.14-.74.14-.23,0-.44-.07-.62-.2-.18-.14-.28-.34-.3-.61v-5.15h1.74v-.78h-1.74v-2.55h-.98v2.55h-1.04v.78h1.04v5.42c0,.32.07.59.22.81.14.22.34.38.59.49s.51.16.79.16.52-.03.75-.09c.23-.06.43-.13.59-.2s.28-.13.36-.16l-.26-.8s-.18.1-.41.2Z"/>
      <path class="cls-1" d="M232.97,93.85c-.34-.36-.73-.64-1.19-.85-.45-.21-.95-.31-1.49-.31s-1.04.1-1.5.31c-.46.21-.86.49-1.19.85-.34.36-.6.77-.78,1.24-.18.47-.28.97-.28,1.5s.09,1.01.28,1.48c.18.47.44.88.78,1.24.33.36.73.64,1.19.85.46.21.96.31,1.5.31s1.05-.1,1.51-.31c.46-.21.85-.49,1.19-.85s.59-.77.77-1.24c.18-.47.27-.96.27-1.48s-.09-1.04-.27-1.5c-.18-.47-.44-.88-.78-1.24ZM232.66,98.09c-.25.46-.58.83-1,1.1-.42.27-.87.4-1.38.4s-.96-.13-1.38-.4c-.42-.26-.75-.62-.99-1.08s-.37-.96-.37-1.52.12-1.08.38-1.53.58-.82.99-1.1.87-.42,1.37-.42.96.13,1.38.4c.41.27.75.63,1,1.09.25.46.38.97.38,1.52s-.12,1.05-.38,1.52Z"/>
      <path class="cls-1" d="M246.15,99.13v-9.38h-.98v4.65c-.28-.47-.67-.88-1.17-1.21s-1.06-.5-1.69-.5c-.67,0-1.26.18-1.78.53-.52.36-.93.83-1.22,1.42-.29.59-.44,1.24-.44,1.95,0,.5.09.98.27,1.45.18.47.43.88.75,1.25s.7.65,1.14.86.92.32,1.44.32c.55,0,1.08-.14,1.59-.43s.92-.68,1.22-1.17v.74c0,.18.08.35.23.51.15.15.33.24.54.25.11,0,.25,0,.45-.03v-.78c-.12,0-.2-.05-.26-.11-.06-.06-.09-.16-.09-.3ZM245.16,97.74c-.04.25-.14.49-.3.72s-.37.43-.62.6c-.25.17-.5.3-.77.4-.27.1-.53.14-.78.14-.4,0-.76-.08-1.1-.23-.34-.15-.64-.37-.9-.65-.26-.28-.46-.61-.6-.97-.14-.36-.21-.75-.21-1.15s.06-.76.19-1.12.31-.69.54-.98.52-.52.85-.68c.33-.17.69-.25,1.1-.25.35,0,.7.08,1.05.25.35.17.67.39.95.68.28.28.48.6.61.94v2.31Z"/>
      <path class="cls-1" d="M253.57,93.22c-.55-.35-1.2-.53-1.95-.53s-1.37.17-1.94.52c-.57.35-1.02.82-1.34,1.4s-.48,1.23-.48,1.93c0,.54.09,1.04.28,1.51.19.47.45.89.79,1.25.34.36.74.64,1.2.85.46.21.96.31,1.5.31.49,0,.95-.08,1.38-.24s.8-.38,1.12-.67c.32-.29.55-.61.71-.97l-.85-.23c-.17.41-.48.73-.92.98s-.91.38-1.4.38-.93-.12-1.34-.37-.74-.58-1-.99-.41-.9-.46-1.43h6.46s.01-.09.01-.17v-.22c0-.69-.16-1.33-.48-1.91-.32-.58-.76-1.05-1.31-1.4ZM248.85,96.2c.04-.53.19-1.01.44-1.43.26-.42.59-.74.99-.97s.85-.35,1.35-.35.94.12,1.35.35c.41.23.74.56,1,.97s.4.89.44,1.43h-5.57Z"/>
      <polygon class="cls-1" points="262.97 99.34 260.39 92.8 259.36 92.8 262.42 100.32 263.48 100.32 266.53 92.8 265.56 92.8 262.97 99.34"/>
      <path class="cls-1" d="M273.54,93.85c-.34-.36-.73-.64-1.19-.85-.45-.21-.95-.31-1.49-.31s-1.04.1-1.5.31c-.46.21-.86.49-1.19.85s-.6.77-.78,1.24c-.18.47-.28.97-.28,1.5s.09,1.01.28,1.48c.18.47.44.88.77,1.24.33.36.73.64,1.19.85.46.21.96.31,1.5.31s1.05-.1,1.51-.31c.46-.21.85-.49,1.19-.85s.59-.77.77-1.24c.18-.47.28-.96.28-1.48s-.09-1.04-.28-1.5c-.18-.47-.44-.88-.78-1.24ZM273.22,98.09c-.25.46-.58.83-1,1.1-.41.27-.87.4-1.38.4s-.96-.13-1.38-.4c-.42-.26-.75-.62-.99-1.08s-.37-.96-.37-1.52.13-1.08.38-1.53.58-.82.99-1.1c.41-.28.87-.42,1.37-.42s.96.13,1.38.4c.42.27.75.63,1,1.09.25.46.38.97.38,1.52s-.13,1.05-.38,1.52Z"/>
      <path class="cls-1" d="M281.22,98.95c-.23.2-.49.35-.8.47-.3.12-.62.17-.95.17-.5,0-.96-.14-1.38-.41-.42-.27-.75-.64-1-1.1s-.38-.97-.38-1.54.12-1.09.37-1.54c.25-.45.58-.8.99-1.06s.87-.39,1.38-.39c.46,0,.89.11,1.27.33.38.22.68.52.89.9l.96-.3c-.26-.55-.66-.99-1.2-1.31s-1.16-.49-1.87-.49c-.74,0-1.4.17-1.97.52-.57.35-1.01.81-1.33,1.4-.32.59-.48,1.23-.48,1.94,0,.53.09,1.03.28,1.5.19.47.45.89.8,1.25.34.36.74.65,1.2.86.46.21.96.31,1.51.31.48,0,.93-.08,1.35-.24s.79-.38,1.1-.67c.31-.28.54-.61.67-.96l-.97-.29c-.08.23-.23.45-.46.64Z"/>
      <path class="cls-1" d="M289.31,93.22c-.55-.35-1.2-.53-1.95-.53s-1.37.17-1.94.52c-.57.35-1.02.82-1.34,1.4s-.49,1.23-.49,1.93c0,.54.09,1.04.28,1.51s.45.89.79,1.25c.34.36.74.64,1.2.85.46.21.96.31,1.5.31.49,0,.95-.08,1.38-.24.43-.16.8-.38,1.12-.67s.55-.61.71-.97l-.85-.23c-.17.41-.48.73-.92.98s-.9.38-1.4.38-.93-.12-1.34-.37-.74-.58-1-.99-.41-.9-.46-1.43h6.46s.01-.09.01-.17v-.22c0-.69-.16-1.33-.48-1.91s-.76-1.05-1.31-1.4ZM284.6,96.2c.04-.53.19-1.01.44-1.43.26-.42.59-.74.99-.97.41-.23.85-.35,1.35-.35s.94.12,1.35.35c.41.23.74.56,1,.97s.4.89.44,1.43h-5.57Z"/>
      <polygon class="cls-1" points="286.97 89.75 285.55 90.98 286.1 91.28 287.33 90.37 288.56 91.28 289.13 90.98 287.7 89.75 286.97 89.75"/>
      <rect class="cls-1" x="292.47" y="98.9" width=".85" height="1.42"/>
      <rect class="cls-1" x="364.42" y="2.94" width="2" height="110.16"/>
    </g>
  </g>
</svg>